<?xml version="1.0" encoding="UTF-8"?>
<svg enable-background="new 0 0 87.9 100.3" version="1.1" viewBox="0 0 87.9 100.3" xml:space="preserve" xmlns="http://www.w3.org/2000/svg">
<style type="text/css">
	.st0{fill:none;stroke:#c9cac2;stroke-miterlimit:10;}
	.st1{fill:#c9cac2;}
</style>

	
		<path class="st0" d="m0.9 95.8c0.3-1.3 6-5.6 6-5.6l9.4-3.4 3.7-4.5 57.5-20.5s2.3-1.1 2.8 0.4c0 0 1.9 3.4 2.8 6 1 2.7 1.5 6.3 1.5 6.3 0.5 1.5-1.8 2.4-1.8 2.4l-57.4 20.6-5.7-1.1-9.4 3.4s-7.2 0.1-8.2-0.8l-1.2-3.2z"/>
		<path class="st0" d="m25.9 97.3s-0.3-4.2-1.7-7.9-3.6-7.2-3.6-7.2"/>
		<path class="st0" d="m35.3 94s-0.3-4.2-1.7-7.9c-1.3-3.7-3.6-7.2-3.6-7.2"/>
		<path class="st0" d="m39.1 92.6s-0.3-4.2-1.7-7.9c-1.3-3.7-3.6-7.2-3.6-7.2"/>
		<path class="st0" d="m51.3 88.3s-0.3-4.2-1.7-7.9c-1.3-3.7-3.6-7.2-3.6-7.2"/>
		<path class="st0" d="m11.1 99.4s-0.2-2.2-1.3-5.3c-1.1-3-2.1-4.2-2.1-4.2"/>
		<path class="st0" d="m19.5 96.4s-0.2-2.2-1.3-5.3c-1.1-3-2.1-4.2-2.1-4.2"/>
		<polygon class="st1" points="25.3 94.3 84.2 73.4 83.5 68.3 24.2 89.4 18 90.9 1.3 96.8 2 98.9 4.6 99.5 19.2 94.3"/>
		<polygon class="st1" points="19.7 85.6 6.3 90.5 2.6 93.9 20.4 87.5 22.2 85.8 81.2 64.8 80.3 62.3 21.4 83.3"/>
		<polygon class="st0" points="39.6 95.4 38.6 92.8 26.9 97 29.7 98.9"/>
		<polygon class="st0" points="87.2 82.7 83 77 73.2 80.5 79.2 85.6"/>
		<polygon class="st0" points="32.3 75 33.3 77.7 21.5 81.9 22.5 78.5"/>
		<polygon class="st0" points="77.4 57 77.6 61.9 67.8 65.4 69.3 57.6 75.5 55.4"/>
	
	
		<path class="st0" d="m0.9 68.8c0.3-1.3 6-5.6 6-5.6l9.4-3.4 3.7-4.5 57.5-20.5s2.3-1.1 2.8 0.4c0 0 1.9 3.4 2.8 6 1 2.7 1.5 6.3 1.5 6.3 0.5 1.5-1.8 2.4-1.8 2.4l-57.5 20.5-5.7-1.1-9.4 3.4s-7.2 0.1-8.2-0.8l-1.1-3.1z"/>
		<path class="st0" d="m25.8 70.2s-0.3-4.2-1.7-7.9c-1.3-3.7-3.6-7.2-3.6-7.2"/>
		<path class="st0" d="m35.2 66.9s-0.3-4.2-1.7-7.9c-1.3-3.7-3.6-7.2-3.6-7.2"/>
		<path class="st0" d="m39 65.5s-0.3-4.2-1.7-7.9c-1.3-3.7-3.6-7.2-3.6-7.2"/>
		<path class="st0" d="m51.2 61.2s-0.3-4.2-1.7-7.9c-1.3-3.8-3.5-7.3-3.5-7.3"/>
		<path class="st0" d="m11 72.3s-0.2-2.2-1.3-5.3c-1.1-3-2.1-4.2-2.1-4.2"/>
		<path class="st0" d="m19.5 69.3s-0.2-2.2-1.3-5.3c-1.1-3-2.1-4.2-2.1-4.2"/>
		<polygon class="st1" points="25.2 67.3 84.1 46.3 83.4 41.2 24.1 62.3 17.9 63.8 1.2 69.7 2 71.8 4.6 72.4 19.1 67.2"/>
		<polygon class="st1" points="19.6 58.5 6.3 63.4 2.6 66.8 20.3 60.5 22.2 58.7 81.1 37.7 80.2 35.2 21.3 56.2"/>
		<polygon class="st0" points="39.5 68.3 38.6 65.7 26.8 69.9 29.7 71.8"/>
		<polygon class="st0" points="87.1 55.6 82.9 49.9 73.1 53.4 79.1 58.5"/>
		<polygon class="st0" points="32.2 47.9 33.2 50.6 21.4 54.8 22.4 51.5"/>
		<polygon class="st0" points="77.3 29.9 77.6 34.8 67.7 38.3 69.2 30.5 75.4 28.3"/>
	
	
		<path class="st0" d="m0.9 41.8c0.3-1.3 6-5.6 6-5.6l9.4-3.4 3.7-4.5 57.4-20.4s2.3-1.1 2.8 0.4c0 0 1.9 3.4 2.8 6 1 2.7 1.5 6.3 1.5 6.3 0.5 1.5-1.8 2.4-1.8 2.4l-57.4 20.4-5.7-1.1-9.4 3.4s-7.2 0.1-8.2-0.8l-1.1-3.1z"/>
		<path class="st0" d="m25.8 43.2s-0.3-4.2-1.7-7.9c-1.3-3.7-3.6-7.2-3.6-7.2"/>
		<path class="st0" d="m35.2 39.9s-0.3-4.2-1.7-7.9c-1.3-3.7-3.6-7.2-3.6-7.2"/>
		<path class="st0" d="m39 38.5s-0.3-4.2-1.7-7.9c-1.3-3.7-3.6-7.2-3.6-7.2"/>
		<path class="st0" d="m51.2 34.2s-0.3-4.2-1.7-7.9c-1.3-3.8-3.5-7.3-3.5-7.3"/>
		<path class="st0" d="m11 45.3s-0.2-2.2-1.3-5.3-2.1-4.2-2.1-4.2"/>
		<path class="st0" d="m19.5 42.3s-0.2-2.2-1.3-5.3c-1.1-3-2.1-4.2-2.1-4.2"/>
		<polygon class="st1" points="25.2 40.3 84.1 19.3 83.4 14.2 24.1 35.3 17.9 36.8 1.2 42.7 2 44.8 4.6 45.4 19.1 40.2"/>
		<polygon class="st1" points="19.6 31.5 6.3 36.4 2.6 39.8 20.3 33.5 22.2 31.7 81.1 10.7 80.2 8.2 21.3 29.2"/>
		<polygon class="st0" points="39.5 41.3 38.6 38.7 26.8 42.9 29.7 44.8"/>
		<polygon class="st0" points="87.1 28.6 82.9 22.9 73.1 26.4 79.1 31.5"/>
		<polygon class="st0" points="32.2 20.9 33.2 23.6 21.4 27.8 22.4 24.5"/>
		<polygon class="st0" points="77.2 0.7 77.6 7.8 67.7 11.3 69.2 3.5"/>
	

</svg>
