<?xml version="1.0" encoding="UTF-8"?>
<svg enable-background="new 0 0 121.8 121.5" version="1.1" viewBox="0 0 121.8 121.5" xml:space="preserve" xmlns="http://www.w3.org/2000/svg" fill="#2fac63">
<style type="text/css">
.st0{fill:none;stroke:#2fac63;stroke-width:10;stroke-miterlimit:10;}
</style>
<polygon points="54.9 43.5 46.7 36.6 47.6 30.6 55.2 37.5"/>
<polygon points="45.9 52.5 39 44.3 33 45.2 39.9 52.8"/>
<path d="m47.1 52.3-7.8-8.5 2.1-2.1-1.5-3.7 0.7-0.7 3.7 1.5 2.1-2.1 8.5 7.8 26.1 26.1 3.3 5.6s3.5 6.2 2.1 7.6-7.6-2.1-7.6-2.1l-5.6-3.3-26.1-26.1z"/>
<circle class="st0" cx="61.1" cy="60.8" r="45.8"/>
<line class="st0" x1="61.1" x2="61.1" y2="30"/>
<line class="st0" x1="61" x2="61" y1="91.5" y2="121.5"/>
<line class="st0" x1="121.8" x2="91.8" y1="60.8" y2="60.8"/>
<line class="st0" x1="30" y1="60.5" y2="60.5"/>
</svg>
