<?xml version="1.0" encoding="utf-8"?>
<!-- Generator: Adobe Illustrator 19.0.0, SVG Export Plug-In . SVG Version: 6.00 Build 0)  -->
<svg version="1.1" id="Layer_2" xmlns="http://www.w3.org/2000/svg" xmlns:xlink="http://www.w3.org/1999/xlink" x="0px" y="0px"
	 viewBox="0 0 118.4 179.7" style="enable-background:new 0 0 118.4 179.7;" xml:space="preserve">
<style type="text/css">
	.st0{fill:#AA1919;}
	.st1{fill:#E25C5D;}
	.st2{fill:#300000;}
</style>
<g id="XMLID_506_">
	<polygon id="XMLID_497_" class="st0" points="47.2,67 17.5,17.3 56.4,40.8 	"/>
	<polygon id="XMLID_498_" class="st1" points="47.2,52 17.5,101.7 56.4,78.1 	"/>
	<polygon id="XMLID_501_" class="st1" points="71.3,67 101,17.3 62.1,40.8 	"/>
	<polygon id="XMLID_505_" class="st2" points="101,17.3 17.5,101.7 56.4,78.1 71.3,67 	"/>
	<polygon id="XMLID_490_" class="st0" points="46.5,72.4 0,59.4 46.5,47.1 59.1,0 59.1,179.7 	"/>
	<polygon id="XMLID_500_" class="st2" points="71.3,52 101,101.7 62.1,78.1 	"/>
	<polygon id="XMLID_499_" class="st2" points="71.8,72.5 118.4,59.4 71.8,47.1 59.1,0 59.1,179.7 	"/>
	<polygon id="XMLID_502_" class="st1" points="0,59.4 46.5,46.9 59.1,0 59.1,59.4 	"/>
	<polygon id="XMLID_503_" class="st0" points="118.4,59.4 71.7,46.9 59.1,0 59.1,59.4 	"/>
	<polygon id="XMLID_504_" class="st1" points="118.4,59.4 71.7,46.9 59.1,59.4 	"/>
</g>
</svg>
