<?xml version="1.0" encoding="UTF-8"?>
<svg enable-background="new 0 0 103.1 94.1" version="1.1" viewBox="0 0 103.1 94.1" xml:space="preserve" xmlns="http://www.w3.org/2000/svg">
<style type="text/css">
	.st0{fill:none;stroke:#c9cac2;stroke-miterlimit:10;}
	.st1{fill:#c9cac2;}
	.st2{fill:none;stroke:#c9cac2;stroke-width:2;stroke-miterlimit:10;}
</style>

	<line class="st0" x1="7" x2="61.8" y1="22.5" y2="32.4"/>
	<polygon class="st1" points="5.2 21.8 5.2 73.1 8.2 73.5 8.2 22.4 35.4 10.1 31.9 9.7"/>
	<polygon class="st1" points="11.2 22.9 11.2 74.2 14.2 74.5 14.2 23.5 41.5 11.2 37.9 10.8"/>
	<polygon class="st1" points="17.2 24 17.2 75.3 20.2 75.6 20.2 24.5 47.4 12.3 43.9 11.8"/>
	<polygon class="st1" points="23.2 25.1 23.2 76.3 26.2 76.7 26.2 25.6 53.4 13.4 49.9 12.9"/>
	<polygon class="st1" points="29.2 26.2 29.2 77.4 32.2 77.7 32.2 26.7 59.4 14.5 55.9 14"/>
	<polygon class="st1" points="35.2 27.3 35.2 78.4 38.2 78.8 38.2 27.8 65.4 15.6 61.9 15.1"/>
	<polygon class="st1" points="41.2 28.3 41.2 79.5 44.2 79.8 44.2 28.9 71.4 16.7 67.9 16.2"/>
	<polygon class="st1" points="47.2 29.5 47.2 80.6 50.2 80.9 50.2 30 77.4 17.8 73.9 17.3"/>
	<polygon class="st1" points="53.2 30.5 53.2 81.6 56.2 82 56.2 31.1 83.4 18.9 79.9 18.4"/>
	<polygon class="st1" points="59.2 31.6 59.2 82.7 62.2 83 62.2 32.1 89.4 19.9 85.8 19.5"/>
	<path class="st1" d="m89.4 19.9"/>
	<line class="st1" x1="86.4" x2="86.8" y1="19.4" y2="19.5"/>
	<path class="st1" d="m68.9 16.2"/>
	<line class="st1" x1="27.2" x2="32.9" y1="8.6" y2="9.7"/>
	<polyline class="st2" points="69.2 77.6 69.2 88.6 71 90.1 90.2 93.1 90.2 65.5 70.8 62"/>
	<polyline class="st2" points="75.2 74.6 75.2 85.6 77 87.1 96.2 90.1 96.2 62.5 76.8 59"/>
	<polyline class="st2" points="81.2 71.6 81.2 82.6 83 84.1 102.2 87.1 102.2 59.5 82.8 56"/>
	<path class="st0" d="m62.7 85.6-57.1-10c-1.3 0-2.4-1-2.4-2.3v-22.6c0-1.3 1.1-2.3 2.4-2.3l57.1 10c1.3 0 2.4 1 2.4 2.3v22.6c0 1.3-1.1 2.3-2.4 2.3z"/>
	<polygon class="st0" points="10.6 81.9 6.4 81.2 6.4 75.9 10.6 76.6"/>
	<polygon class="st0" points="62.3 90.9 58.1 90.2 58.1 84.9 62.3 85.6"/>
	<polygon class="st0" points="3.2 73.5 0.5 71.5 0.5 53.6 3.2 51.6"/>
	<polygon class="st0" points="3.2 45.9 0.5 43.9 0.5 26.1 3.2 24.1"/>
	<path class="st0" d="m14.2 17.2"/>
	<polyline class="st0" points="15.9 18 14.3 17.3 2.9 22.5"/>
	<line class="st0" x1="35.4" x2="86.1" y1="6.9" y2="15.4"/>
	<line class="st0" x1="69.6" x2="72.7" y1="39.5" y2="44.1"/>
	<polyline class="st0" points="72.2 57.3 69.7 57.1 69.7 39.8 79.6 34.5 82.7 39.1 82.7 51.7 72.7 57 72.7 44.4 82.5 39.1"/>
	<line class="st0" x1="63.2" x2="69.7" y1="58.1" y2="55.2"/>
	<line class="st0" x1="82.7" x2="96.7" y1="76.5" y2="70"/>
	<line class="st0" x1="64.3" x2="69.2" y1="84.9" y2="82.7"/>
	<line class="st0" x1="82.7" x2="85.7" y1="49.5" y2="48.2"/>
	<path class="st0" d="m94.8 45.2c0.6 0.4 0.9 1.1 0.9 1.8v16.6"/>
	<line class="st0" x1="95.7" x2="95.7" y1="42.4" y2="10.4"/>
	<path class="st0" d="m35.4 10.1v-4c0-2.2 0.5-4.3 3.4-4.9l-4-0.7c-2.9 0.6-3.4 2.7-3.4 4.9v5.9"/>
	<path class="st0" d="m86.1 20.6v-5.9c0-2.2 0.5-4.3 3.4-4.9l4 0.7c-2.9 0.6-3.4 2.7-3.4 4.9l0.1 6.4-25.1 11.3v22.6c0 1.3-1.1 2.3-2.4 2.3l-57.1-10c-1.3 0-2.4-1-2.4-2.3v-23.6"/>
	<polygon class="st1" points="87.7 10.8 37.2 2.3 37.8 0.5 90.6 9.5"/>
	<line class="st0" x1="69.6" x2="72.7" y1="67.5" y2="72.1"/>
	<polyline class="st0" points="72.2 85.3 69.7 85.1 69.7 67.8 79.6 62.5 82.7 67.1 82.7 79.7 72.7 85 72.7 72.4 82.5 67.1"/>
	<path class="st0" d="m85.3 48c-0.5 0.1-0.3 0-0.6-0.2-0.6-0.4-1-1.2-1-2.1v-16.9c0-1.2 1.1-2.9 2.2-3.2l5.2-2.5c0.7-0.3 1.4 0.1 1.8 0.7"/>
	<path class="st0" d="m93.5 46-5.2 2.5c-1.3 0.4-2.3-0.8-2.3-2.2v-16.9c0-1.2 1.1-2.9 2.2-3.2l5.2-2.5c1.2-0.5 2.2 0.7 2.2 2.2v16.9c0.1 0.7-0.9 2.8-2.1 3.2z"/>
	<line class="st0" x1="91.5" x2="93.9" y1="23" y2="23.5"/>
	<line class="st0" x1="87.6" x2="84.6" y1="48.6" y2="47.8"/>
	<path class="st0" d="m76.8 27.8v4.1s0 0.7-0.3 1.1c-0.3 0.5-1 0.8-1 0.8l-10.7 5.2"/>
	<line class="st0" x1="92.7" x2="92.7" y1="23.6" y2="43.6"/>
	<polygon class="st1" points="94.5 30.1 92.7 31.1 92.7 29.8 94.5 28.8"/>
	<polygon class="st1" points="94.5 34.1 92.7 35.1 92.7 33.8 94.5 32.8"/>
	<polygon class="st1" points="94.5 38.1 92.7 39.1 92.7 37.8 94.5 36.8"/>
	<line class="st0" x1="90.2" x2="31.4" y1="20" y2="9.9"/>
	<line class="st0" x1="62.2" x2="5.2" y1="83" y2="73.1"/>
	<polygon class="st1" points="82.7 79.6 72.7 84.9 72.7 72.4 82.7 67.1"/>
	<polygon class="st1" points="82.7 51.8 72.7 57.1 72.7 44.6 82.7 39.3"/>

</svg>
