<?xml version="1.0" encoding="UTF-8"?>
<svg enable-background="new 0 0 60.1 80.5" version="1.1" viewBox="0 0 60.1 80.5" xml:space="preserve" xmlns="http://www.w3.org/2000/svg">
<style type="text/css">
	.st0{fill:none;stroke:#c9cac2;stroke-miterlimit:10;}
	.st1{fill:#c9cac2;}
</style>

	<polygon class="st0" points="33.5 46.4 33.5 35.5 37.5 30.5 37.5 27.4 33.5 27.4 33.5 15.4 26.5 15.4 26.5 27.4 22.5 27.4 22.5 30.5 26.5 35.5 26.5 46.4"/>
	<polygon class="st1" points="28 44.5 28 35 24 30 24 28.5 28 28.5 28 16.5 32 16.5 32 28.5 36 28.5 36 30 32 35 32 44.5"/>
	<polygon class="st0" points="44.5 7.5 44.5 21.4 40.7 25 35.5 25 35.5 6 39.6 6 40.6 7.5"/>
	<polygon class="st1" points="43 9 43 20.9 40 23.5 37 23.5 37 7.5 38.9 7.5 39.8 9"/>
	<polygon class="st0" points="46.5 7.5 46.5 21 51.2 21 51.2 33.8 54.5 37.8 54.5 42.8 52.5 43.8 52.5 46.8 53.5 47.8 53.5 53.8 56.3 53.8 59.5 47.3 59.5 26.2 58.5 24.9 58.5 18.5 57.5 17.6 57.5 10.5 52.4 7.5"/>
	<polygon class="st1" points="48 9.2 48 19.7 52.8 19.7 52.8 33.3 56 37.2 56 43.7 54.1 44.8 54 45.9 55 46.9 55 51.7 55.6 51.7 58 46.8 58 27.1 57 25.6 57 19.4 56 18.3 56 11.6 52 9.2"/>
	<polygon class="st0" points="15.5 7.5 15.5 21.4 19.4 25 24.5 25 24.5 6 20.5 6 19.5 7.5"/>
	<polygon class="st1" points="17 9 17 20.9 20 23.5 23 23.5 23 7.5 21.2 7.5 20.3 9"/>
	<polygon class="st0" points="13.5 7.5 13.5 21 8.9 21 8.9 33.8 5.5 37.8 5.5 42.8 7.5 43.8 7.5 46.8 6.5 47.8 6.5 53.8 3.8 53.8 0.5 47.3 0.5 26.2 1.5 24.9 1.5 18.5 2.5 17.6 2.5 10.5 7.7 7.5"/>
	<polygon class="st1" points="12 9.2 12 19.7 7.3 19.7 7.3 33.3 4 37.2 4 43.7 6 44.8 6 45.9 5 46.9 5 51.7 4.4 51.7 2 46.8 2 27.1 3 25.6 3 19.4 4 18.3 4.1 11.6 8.1 9.2"/>
	<polygon class="st0" points="52.9 80 52.9 77.8 48.7 73.9 48.7 72.3 47.7 71.4 47.7 68.2 48.7 67.1 48.7 57.8 47.7 57.2 47.7 56.4 48.7 55.6 48.7 35.5 47.2 34 40.3 34 38.7 35.5 38.7 38 35.7 38 35.7 45.5 36.2 46 38.7 46 38.7 55.6 39.7 56.4 39.7 57.2 38.7 57.8 38.7 67.1 39.7 68.2 39.7 71.4 38.7 72.3 38.7 73.8 34.2 77.8 34.2 80"/>
	<polygon class="st1" points="51.7 78.5 47.2 74.5 47.2 73 46.2 72.2 46.2 67.6 47.2 66.4 47.2 58.6 46.2 57.9 46.2 55.7 47.2 54.9 47.2 36.6 46.2 35.5 41.1 35.5 40.2 36.4 40.2 39.5 37.2 39.5 37.2 44.3 37.4 44.5 40.2 44.5 40.2 54.9 41.2 55.7 41.2 57.9 40.2 58.6 40.2 66.4 41.2 67.6 41.2 72.2 40.2 73 40.2 74.5 35.7 78.5"/>
	<polygon class="st0" points="7.2 80 7.2 77.8 11.4 73.9 11.4 72.3 12.4 71.4 12.4 68.2 11.4 67.1 11.4 57.8 12.4 57.2 12.4 56.4 11.4 55.6 11.4 35.5 12.9 34 19.8 34 21.4 35.5 21.4 38 24.4 38 24.4 45.5 23.9 46 21.4 46 21.4 55.6 20.4 56.4 20.4 57.2 21.4 57.8 21.4 67.1 20.4 68.2 20.4 71.4 21.4 72.3 21.4 73.8 25.9 77.8 25.9 80"/>
	<polygon class="st1" points="8.4 78.5 12.9 74.5 12.9 73 13.9 72.2 13.9 67.6 12.9 66.4 12.9 58.6 13.9 57.9 13.9 55.7 12.9 54.9 12.9 36.6 13.9 35.5 19 35.5 19.9 36.4 19.9 39.5 22.9 39.5 22.9 44.3 22.7 44.5 19.9 44.5 19.9 54.9 18.9 55.7 18.9 57.9 19.9 58.6 19.9 66.4 18.9 67.6 18.9 72.2 19.9 73 19.9 74.5 24.4 78.5"/>
	<polygon class="st0" points="26.5 3 28.8 0.5 32.5 0.5 33.5 1.5 33.5 13 26.5 13"/>
	<polygon class="st1" points="28 3.5 29.4 2 31.5 2 32 2.5 32 11.5 28 11.5"/>

</svg>
