<?xml version="1.0" encoding="UTF-8"?>
<svg enable-background="new 0 0 112.7 64.2" version="1.1" viewBox="0 0 112.7 64.2" xml:space="preserve" xmlns="http://www.w3.org/2000/svg">
<style type="text/css">
	.st0{fill:none;stroke:#c9cac2;stroke-miterlimit:10;}
	.st1{fill:#c9cac2;stroke:#c9cac2;stroke-miterlimit:10;}
	.st2{fill:#c9cac2;}
	.st3{fill:none;stroke:#c9cac2;stroke-width:2;stroke-miterlimit:10;}
</style>

	<polyline class="st0" points="110.6 12.8 50.1 32.1 48.2 29.4 108.5 10.2"/>
	<ellipse class="st1" cx="19.7" cy="30.1" rx="3.3" ry="4.7"/>
	<ellipse class="st1" cx="19.7" cy="43.1" rx="3.3" ry="4.7"/>
	<rect class="st2" x="16.1" y="29.4" width=".8" height="13.9"/>
	<rect class="st2" x="22.6" y="29.4" width=".8" height="13.9"/>
	<ellipse class="st1" cx="31.7" cy="33.1" rx="3.3" ry="4.7"/>
	<ellipse class="st1" cx="31.7" cy="46.1" rx="3.3" ry="4.7"/>
	<rect class="st2" x="28.1" y="32.4" width=".8" height="13.9"/>
	<rect class="st2" x="34.6" y="32.4" width=".8" height="13.9"/>
	<ellipse class="st1" cx="43.7" cy="37.1" rx="3.3" ry="4.7"/>
	<ellipse class="st1" cx="43.7" cy="50.1" rx="3.3" ry="4.7"/>
	<rect class="st2" x="40.1" y="36.4" width=".8" height="13.9"/>
	<rect class="st2" x="46.6" y="36.4" width=".8" height="13.9"/>
	<path class="st0" d="m48.2 29.4"/>
	<line class="st0" x1="50.6" x2="50.6" y1="60" y2="31"/>
	<line class="st0" x1="48.2" x2="13.4" y1="29.4" y2="19.4"/>
	<line class="st0" x1="64.1" x2="99.4" y1="3.5" y2="13.2"/>
	<line class="st0" x1="87.1" x2="96.5" y1="9.8" y2="6.9"/>
	<line class="st0" x1="74.5" x2="83.9" y1="6.3" y2="3.5"/>
	<polyline class="st0" points="93.7 40 93.7 33.1 112.1 27.3 112.1 39.3 96.7 44.1"/>
	<polygon class="st0" points="112.1 25.8 93.7 31.6 93.7 19.6 112.1 13.9"/>
	<polygon class="st2" points="110 36.8 108.8 36.4 108.8 32.1 110 31.1"/>
	<polygon class="st2" points="110 23.4 108.8 23 108.8 18.7 110 17.7"/>
	<polyline class="st0" points="52.6 59 52.6 43.1 57.3 36.2 91 25.2"/>
	<polygon class="st0" points="89.9 34.8 56.8 44.8 57.8 46 90.9 36.2"/>
	<polyline class="st0" points="82.7 28 79.9 35.9 61.2 41.5 57.2 36.2"/>
	<polyline class="st0" points="65.7 57 57.6 45.8 57.6 58.1 50.1 60.5 15.1 50.7 13.6 48.4 13.6 19.4 73.6 0.5 108.5 10.2 110.6 12.8 110.6 41.2 97.7 45.3"/>
	<line class="st0" x1="65.6" x2="65.6" y1="64" y2="56"/>
	<polyline class="st0" points="57.4 58 59 61.4 65.9 63.7 98.6 53.6 98.6 46.4 90 34.8"/>
	<line class="st0" x1="65.4" x2="98.4" y1="56.7" y2="46.4"/>
	<polyline class="st0" points="57.8 46 75.5 45.9 76.8 47.7 65.4 56.7"/>
	<polyline class="st0" points="90.8 36.4 79.8 44.6 81 46.2 98.4 46.4"/>
	<polygon class="st0" points="3.1 20.3 13.4 22.7 13.4 40.4 8.3 39.2 0.5 28.4 0.5 23"/>
	<ellipse class="st0" cx="8.6" cy="28.3" rx="3.2" ry="4.1"/>
	<line class="st3" x1="9.1" x2="9.1" y1="32" y2="24"/>
	<polygon class="st1" points="76.8 10.3 76.8 10.2 67.8 7.6 30.4 18.9 30.4 22.2 38.3 24.4 39.8 23.9 39.8 21.1"/>
	<polyline class="st0" points="3.6 32.5 3.6 39.4 13.6 48.2"/>
	<polyline class="st0" points="3.1 20.3 54.5 3.6 59.4 4.9"/>
	<polygon class="st2" points="11.5 42.7 13.4 43.1 13.4 40.4 11.5 40"/>
	<polygon class="st0" points="43.7 60.3 19.7 53.6 19.7 52.1 43.7 58.8"/>
	<polygon class="st0" points="38.9 53.9 35.8 53 35.8 56.5 38.9 57.4"/>
	<polygon class="st0" points="38.9 26.8 35.8 25.9 35.8 29.4 38.9 30.3"/>
	<polygon class="st0" points="26.9 50.7 23.7 49.7 23.7 53.2 26.9 54.2"/>
	<polygon class="st0" points="26.9 23.5 23.7 22.7 23.7 26.2 26.9 27"/>
	<line class="st0" x1="96.6" x2="96.6" y1="30" y2="18"/>
	<line class="st0" x1="96.6" x2="96.6" y1="32" y2="43"/>
	<path class="st0" d="m9.7 38.1"/>
	<polyline class="st0" points="13.3 38.4 9.4 37.5 2.3 27.7 2.3 23.7"/>
	<polygon class="st2" points="96.4 30.7 93.7 31.7 93.7 19.6 96.4 18.6"/>
	<polygon class="st2" points="96.4 43.5 93.7 39.5 93.7 33.4 96.4 32.4"/>
	<polygon class="st2" points="91.3 50.8 72.8 56.6 72.8 54.9 91.3 49.1"/>
	<polygon class="st1" points="79.4 10.9 41.4 22.4 41.4 25.2 49.3 27.4 86 15.7 86 12.8"/>
	<polyline class="st2" points="82.7 28 79.9 35.9 61.2 41.5 57.2 36.2"/>

</svg>
